# xmcd
#
# Track frame offsets: 
#        150
#        16432
#        43742
#        63335
#        80229
#        94222
#        106297
#        121062
#        145660
#        162142
#        179307
#        202302
#        216492
#
# Disc length: 3080 seconds
#
# Revision: 0
# Processed by: cddbd v1.5.2PL0 Copyright (c) Steve Scherf et al.
# Submitted via: ExactAudioCopyFreeDBPlugin 1.0
#
DISCID=bd0c060d
DTITLE=Grady Freeman and The Seventh Sons - Kick Off Your Shoes
DYEAR=1997
DGENRE=Blues
TTITLE0=A Loser Again
TTITLE1=Where Did The Blues Come From
TTITLE2=Bye Bye Baby
TTITLE3=Play With Your Body
TTITLE4=Sinker
TTITLE5=Ain't Singin' The Blues No More
TTITLE6=Learnin' The Blues
TTITLE7=I Am A Witness
TTITLE8=For You My Love
TTITLE9=Balls and Chains
TTITLE10=Alone In My Apartment
TTITLE11=I'm Just Your Fool
TTITLE12=That's Wheres It's At
EXTD=
EXTT0=
EXTT1=
EXTT2=
EXTT3=
EXTT4=
EXTT5=
EXTT6=
EXTT7=
EXTT8=
EXTT9=
EXTT10=
EXTT11=
EXTT12=
PLAYORDER=
